<mxfile host="app.diagrams.net" agent="Mozilla/5.0 (Macintosh; Intel Mac OS X 10_15_7) AppleWebKit/537.36 (KHTML, like Gecko) Chrome/129.0.0.0 Safari/537.36" version="24.7.17">
  <diagram name="Page-1" id="c4acf3e9-155e-7222-9cf6-157b1a14988f">
    <mxGraphModel dx="1711" dy="790" grid="1" gridSize="10" guides="1" tooltips="1" connect="1" arrows="1" fold="1" page="1" pageScale="1" pageWidth="850" pageHeight="1100" background="none" math="0" shadow="0">
      <root>
        <mxCell id="0" />
        <mxCell id="1" parent="0" />
        <mxCell id="QdO0fPRtk3mEZKDKFILt-8" style="edgeStyle=orthogonalEdgeStyle;rounded=0;orthogonalLoop=1;jettySize=auto;html=1;exitX=0.5;exitY=0;exitDx=0;exitDy=0;entryX=0.5;entryY=1;entryDx=0;entryDy=0;endArrow=block;endFill=0;" parent="1" source="5d2195bd80daf111-18" target="QdO0fPRtk3mEZKDKFILt-7" edge="1">
          <mxGeometry relative="1" as="geometry" />
        </mxCell>
        <mxCell id="5d2195bd80daf111-18" value="&lt;p style=&quot;margin:0px;margin-top:4px;text-align:center;&quot;&gt;&lt;b&gt;Student&lt;/b&gt;&lt;/p&gt;&lt;hr size=&quot;1&quot;&gt;&lt;p style=&quot;margin:0px;margin-left:4px;&quot;&gt;&lt;br&gt;&lt;/p&gt;" style="verticalAlign=top;align=left;overflow=fill;fontSize=12;fontFamily=Helvetica;html=1;rounded=0;shadow=0;comic=0;labelBackgroundColor=none;strokeWidth=1" parent="1" vertex="1">
          <mxGeometry x="410" y="139" width="143" height="50" as="geometry" />
        </mxCell>
        <mxCell id="QdO0fPRtk3mEZKDKFILt-9" style="edgeStyle=orthogonalEdgeStyle;rounded=0;orthogonalLoop=1;jettySize=auto;html=1;exitX=0.5;exitY=0;exitDx=0;exitDy=0;entryX=0.5;entryY=1;entryDx=0;entryDy=0;endArrow=block;endFill=0;" parent="1" source="QdO0fPRtk3mEZKDKFILt-1" edge="1" target="QdO0fPRtk3mEZKDKFILt-7">
          <mxGeometry relative="1" as="geometry">
            <mxPoint x="665" y="52" as="targetPoint" />
          </mxGeometry>
        </mxCell>
        <mxCell id="QdO0fPRtk3mEZKDKFILt-1" value="&lt;p style=&quot;margin:0px;margin-top:4px;text-align:center;&quot;&gt;&lt;b&gt;Advisor&lt;/b&gt;&lt;/p&gt;&lt;hr size=&quot;1&quot;&gt;&lt;p style=&quot;margin:0px;margin-left:4px;&quot;&gt;&lt;br&gt;&lt;/p&gt;" style="verticalAlign=top;align=left;overflow=fill;fontSize=12;fontFamily=Helvetica;html=1;rounded=0;shadow=0;comic=0;labelBackgroundColor=none;strokeWidth=1" parent="1" vertex="1">
          <mxGeometry x="570" y="139" width="143" height="50" as="geometry" />
        </mxCell>
        <mxCell id="QdO0fPRtk3mEZKDKFILt-10" style="edgeStyle=orthogonalEdgeStyle;rounded=0;orthogonalLoop=1;jettySize=auto;html=1;exitX=0.5;exitY=0;exitDx=0;exitDy=0;entryX=0.5;entryY=1;entryDx=0;entryDy=0;endArrow=block;endFill=0;" parent="1" source="QdO0fPRtk3mEZKDKFILt-2" target="QdO0fPRtk3mEZKDKFILt-7" edge="1">
          <mxGeometry relative="1" as="geometry" />
        </mxCell>
        <mxCell id="QdO0fPRtk3mEZKDKFILt-2" value="&lt;p style=&quot;margin:0px;margin-top:4px;text-align:center;&quot;&gt;&lt;b&gt;Supervisor&lt;/b&gt;&lt;/p&gt;&lt;hr size=&quot;1&quot;&gt;&lt;p style=&quot;margin:0px;margin-left:4px;&quot;&gt;&lt;br&gt;&lt;/p&gt;" style="verticalAlign=top;align=left;overflow=fill;fontSize=12;fontFamily=Helvetica;html=1;rounded=0;shadow=0;comic=0;labelBackgroundColor=none;strokeWidth=1" parent="1" vertex="1">
          <mxGeometry x="730" y="139" width="143" height="50" as="geometry" />
        </mxCell>
        <mxCell id="QdO0fPRtk3mEZKDKFILt-3" value="&lt;p style=&quot;margin:0px;margin-top:4px;text-align:center;&quot;&gt;&lt;b&gt;Topic&lt;/b&gt;&lt;/p&gt;&lt;hr size=&quot;1&quot;&gt;&lt;p style=&quot;margin:0px;margin-left:4px;&quot;&gt;description&lt;/p&gt;&lt;p style=&quot;margin:0px;margin-left:4px;&quot;&gt;thesis-type&lt;/p&gt;" style="verticalAlign=top;align=left;overflow=fill;fontSize=12;fontFamily=Helvetica;html=1;rounded=0;shadow=0;comic=0;labelBackgroundColor=none;strokeWidth=1" parent="1" vertex="1">
          <mxGeometry x="380" y="250" width="143" height="93" as="geometry" />
        </mxCell>
        <mxCell id="QdO0fPRtk3mEZKDKFILt-25" style="edgeStyle=orthogonalEdgeStyle;rounded=0;orthogonalLoop=1;jettySize=auto;html=1;exitX=0.021;exitY=0.329;exitDx=0;exitDy=0;entryX=1;entryY=0.5;entryDx=0;entryDy=0;dashed=1;exitPerimeter=0;" parent="1" source="QdO0fPRtk3mEZKDKFILt-5" target="QdO0fPRtk3mEZKDKFILt-4" edge="1">
          <mxGeometry relative="1" as="geometry" />
        </mxCell>
        <mxCell id="QdO0fPRtk3mEZKDKFILt-4" value="&lt;p style=&quot;margin:0px;margin-top:4px;text-align:center;&quot;&gt;&lt;b&gt;Application&lt;/b&gt;&lt;/p&gt;&lt;hr size=&quot;1&quot;&gt;&lt;p style=&quot;margin:0px;margin-left:4px;&quot;&gt;state&lt;/p&gt;&lt;p style=&quot;margin:0px;margin-left:4px;&quot;&gt;motivation&lt;br&gt;assess()&lt;/p&gt;" style="verticalAlign=top;align=left;overflow=fill;fontSize=12;fontFamily=Helvetica;html=1;rounded=0;shadow=0;comic=0;labelBackgroundColor=none;strokeWidth=1" parent="1" vertex="1">
          <mxGeometry x="570" y="250" width="143" height="93" as="geometry" />
        </mxCell>
        <mxCell id="QdO0fPRtk3mEZKDKFILt-5" value="&lt;p style=&quot;margin:0px;margin-top:4px;text-align:center;&quot;&gt;&lt;b&gt;Thesis&lt;/b&gt;&lt;/p&gt;&lt;hr size=&quot;1&quot;&gt;&lt;p style=&quot;margin:0px;margin-left:4px;&quot;&gt;state&lt;/p&gt;&lt;p style=&quot;margin:0px;margin-left:4px;&quot;&gt;grade&lt;/p&gt;&lt;p style=&quot;margin:0px;margin-left:4px;&quot;&gt;submit-proposal()&lt;br&gt;&lt;/p&gt;&lt;p style=&quot;margin:0px;margin-left:4px;&quot;&gt;schedule-presentation()&lt;/p&gt;&lt;p style=&quot;margin:0px;margin-left:4px;&quot;&gt;submit-thesis()&lt;/p&gt;&lt;p style=&quot;margin:0px;margin-left:4px;&quot;&gt;assess()&lt;/p&gt;&lt;p style=&quot;margin:0px;margin-left:4px;&quot;&gt;grade()&lt;/p&gt;" style="verticalAlign=top;align=left;overflow=fill;fontSize=12;fontFamily=Helvetica;html=1;rounded=0;shadow=0;comic=0;labelBackgroundColor=none;strokeWidth=1" parent="1" vertex="1">
          <mxGeometry x="760" y="250" width="143" height="143" as="geometry" />
        </mxCell>
        <mxCell id="QdO0fPRtk3mEZKDKFILt-6" value="&lt;p style=&quot;margin:0px;margin-top:4px;text-align:center;&quot;&gt;&lt;b&gt;Presentation&lt;/b&gt;&lt;/p&gt;&lt;hr size=&quot;1&quot;&gt;&lt;p style=&quot;margin:0px;margin-left:4px;&quot;&gt;time&lt;/p&gt;&lt;p style=&quot;margin:0px;margin-left:4px;&quot;&gt;location&lt;/p&gt;" style="verticalAlign=top;align=left;overflow=fill;fontSize=12;fontFamily=Helvetica;html=1;rounded=0;shadow=0;comic=0;labelBackgroundColor=none;strokeWidth=1" parent="1" vertex="1">
          <mxGeometry x="380" y="451" width="143" height="70" as="geometry" />
        </mxCell>
        <mxCell id="QdO0fPRtk3mEZKDKFILt-7" value="&lt;p style=&quot;margin:0px;margin-top:4px;text-align:center;&quot;&gt;&lt;b&gt;User&lt;/b&gt;&lt;/p&gt;&lt;hr size=&quot;1&quot;&gt;&lt;p style=&quot;margin:0px;margin-left:4px;&quot;&gt;personal-information&lt;/p&gt;" style="verticalAlign=top;align=left;overflow=fill;fontSize=12;fontFamily=Helvetica;html=1;rounded=0;shadow=0;comic=0;labelBackgroundColor=none;strokeWidth=1" parent="1" vertex="1">
          <mxGeometry x="570" y="39" width="143" height="53" as="geometry" />
        </mxCell>
        <mxCell id="QdO0fPRtk3mEZKDKFILt-13" value="&lt;p style=&quot;margin:0px;margin-top:4px;text-align:center;&quot;&gt;&lt;b&gt;Assessment&lt;/b&gt;&lt;/p&gt;&lt;hr size=&quot;1&quot;&gt;&lt;p style=&quot;margin:0px;margin-left:4px;&quot;&gt;feedback&lt;/p&gt;&lt;p style=&quot;margin:0px;margin-left:4px;&quot;&gt;grade-suggestion&lt;/p&gt;" style="verticalAlign=top;align=left;overflow=fill;fontSize=12;fontFamily=Helvetica;html=1;rounded=0;shadow=0;comic=0;labelBackgroundColor=none;strokeWidth=1" parent="1" vertex="1">
          <mxGeometry x="570" y="451" width="143" height="70" as="geometry" />
        </mxCell>
        <mxCell id="QdO0fPRtk3mEZKDKFILt-14" value="&lt;p style=&quot;margin:0px;margin-top:4px;text-align:center;&quot;&gt;&lt;b&gt;Proposal&lt;/b&gt;&lt;/p&gt;&lt;hr size=&quot;1&quot;&gt;&lt;p style=&quot;margin:0px;margin-left:4px;&quot;&gt;file&lt;/p&gt;&lt;p style=&quot;margin:0px;margin-left:4px;&quot;&gt;feedback&lt;/p&gt;&lt;p style=&quot;margin:0px;margin-left:4px;&quot;&gt;assess()&lt;/p&gt;" style="verticalAlign=top;align=left;overflow=fill;fontSize=12;fontFamily=Helvetica;html=1;rounded=0;shadow=0;comic=0;labelBackgroundColor=none;strokeWidth=1" parent="1" vertex="1">
          <mxGeometry x="760" y="451" width="143" height="80" as="geometry" />
        </mxCell>
        <mxCell id="QdO0fPRtk3mEZKDKFILt-15" value="" style="endArrow=diamondThin;endFill=0;endSize=24;html=1;rounded=0;entryX=0.25;entryY=1;entryDx=0;entryDy=0;" parent="1" target="QdO0fPRtk3mEZKDKFILt-5" edge="1">
          <mxGeometry width="160" relative="1" as="geometry">
            <mxPoint x="450" y="456" as="sourcePoint" />
            <mxPoint x="610" y="460" as="targetPoint" />
            <Array as="points">
              <mxPoint x="450" y="430" />
              <mxPoint x="796" y="430" />
            </Array>
          </mxGeometry>
        </mxCell>
        <mxCell id="QdO0fPRtk3mEZKDKFILt-16" value="" style="endArrow=diamondThin;endFill=0;endSize=24;html=1;rounded=0;exitX=0.75;exitY=0;exitDx=0;exitDy=0;entryX=0.75;entryY=1;entryDx=0;entryDy=0;" parent="1" source="QdO0fPRtk3mEZKDKFILt-14" target="QdO0fPRtk3mEZKDKFILt-5" edge="1">
          <mxGeometry width="160" relative="1" as="geometry">
            <mxPoint x="900" y="493" as="sourcePoint" />
            <mxPoint x="985" y="360" as="targetPoint" />
            <Array as="points">
              <mxPoint x="867" y="430" />
            </Array>
          </mxGeometry>
        </mxCell>
        <mxCell id="QdO0fPRtk3mEZKDKFILt-17" value="" style="endArrow=diamondThin;endFill=0;endSize=24;html=1;rounded=0;entryX=0.5;entryY=1;entryDx=0;entryDy=0;exitX=0.49;exitY=0.006;exitDx=0;exitDy=0;exitPerimeter=0;" parent="1" source="QdO0fPRtk3mEZKDKFILt-13" target="QdO0fPRtk3mEZKDKFILt-5" edge="1">
          <mxGeometry width="160" relative="1" as="geometry">
            <mxPoint x="700" y="483" as="sourcePoint" />
            <mxPoint x="785" y="350" as="targetPoint" />
            <Array as="points">
              <mxPoint x="640" y="440" />
              <mxPoint x="832" y="440" />
            </Array>
          </mxGeometry>
        </mxCell>
        <mxCell id="QdO0fPRtk3mEZKDKFILt-21" value="" style="endArrow=diamondThin;endFill=1;endSize=24;html=1;rounded=0;exitX=0.5;exitY=1;exitDx=0;exitDy=0;entryX=0.25;entryY=0;entryDx=0;entryDy=0;" parent="1" source="QdO0fPRtk3mEZKDKFILt-1" target="QdO0fPRtk3mEZKDKFILt-5" edge="1">
          <mxGeometry width="160" relative="1" as="geometry">
            <mxPoint x="660" y="203" as="sourcePoint" />
            <mxPoint x="665" y="250" as="targetPoint" />
            <Array as="points">
              <mxPoint x="642" y="210" />
              <mxPoint x="796" y="210" />
            </Array>
          </mxGeometry>
        </mxCell>
        <mxCell id="QdO0fPRtk3mEZKDKFILt-22" value="" style="endArrow=diamondThin;endFill=1;endSize=24;html=1;rounded=0;entryX=0.75;entryY=0;entryDx=0;entryDy=0;exitX=0.75;exitY=1;exitDx=0;exitDy=0;" parent="1" target="QdO0fPRtk3mEZKDKFILt-5" edge="1" source="QdO0fPRtk3mEZKDKFILt-2">
          <mxGeometry width="160" relative="1" as="geometry">
            <mxPoint x="875" y="190" as="sourcePoint" />
            <mxPoint x="712.5" y="240" as="targetPoint" />
            <Array as="points">
              <mxPoint x="837" y="210" />
              <mxPoint x="867" y="210" />
            </Array>
          </mxGeometry>
        </mxCell>
        <mxCell id="QdO0fPRtk3mEZKDKFILt-23" value="" style="endArrow=diamondThin;endFill=0;endSize=24;html=1;rounded=0;exitX=1;exitY=0.5;exitDx=0;exitDy=0;entryX=0;entryY=0.5;entryDx=0;entryDy=0;" parent="1" source="QdO0fPRtk3mEZKDKFILt-3" target="QdO0fPRtk3mEZKDKFILt-4" edge="1">
          <mxGeometry width="160" relative="1" as="geometry">
            <mxPoint x="497" y="406" as="sourcePoint" />
            <mxPoint x="657" y="406" as="targetPoint" />
          </mxGeometry>
        </mxCell>
        <mxCell id="QdO0fPRtk3mEZKDKFILt-24" value="" style="endArrow=diamondThin;endFill=1;endSize=24;html=1;rounded=0;exitX=0.25;exitY=1;exitDx=0;exitDy=0;entryX=0.25;entryY=0;entryDx=0;entryDy=0;" parent="1" source="5d2195bd80daf111-18" target="QdO0fPRtk3mEZKDKFILt-4" edge="1">
          <mxGeometry width="160" relative="1" as="geometry">
            <mxPoint x="340" y="250" as="sourcePoint" />
            <mxPoint x="500" y="250" as="targetPoint" />
            <Array as="points">
              <mxPoint x="446" y="210" />
              <mxPoint x="606" y="210" />
            </Array>
          </mxGeometry>
        </mxCell>
      </root>
    </mxGraphModel>
  </diagram>
</mxfile>
